<mxfile host="app.diagrams.net" agent="Mozilla/5.0 (Windows NT 10.0; Win64; x64) AppleWebKit/537.36 (KHTML, like Gecko) Chrome/124.0.0.0 Safari/537.36" version="25.0.0">
  <diagram name="Page-1" id="13e1069c-82ec-6db2-03f1-153e76fe0fe0">
    <mxGraphModel dx="652" dy="272" grid="1" gridSize="10" guides="1" tooltips="1" connect="1" arrows="1" fold="1" page="1" pageScale="1" pageWidth="1100" pageHeight="850" background="none" math="0" shadow="0">
      <root>
        <mxCell id="0" />
        <mxCell id="1" parent="0" />
        <mxCell id="0skMqqrGYNTBtOEti6-V-109" value="" style="rounded=0;whiteSpace=wrap;html=1;" vertex="1" parent="1">
          <mxGeometry x="8" y="5" width="952" height="1575" as="geometry" />
        </mxCell>
        <mxCell id="0skMqqrGYNTBtOEti6-V-108" value="" style="endArrow=none;dashed=1;html=1;rounded=0;exitX=0.5;exitY=0;exitDx=0;exitDy=0;" edge="1" parent="1" source="0skMqqrGYNTBtOEti6-V-102">
          <mxGeometry width="50" height="50" relative="1" as="geometry">
            <mxPoint x="275" y="1164" as="sourcePoint" />
            <mxPoint x="275" y="894" as="targetPoint" />
          </mxGeometry>
        </mxCell>
        <mxCell id="0skMqqrGYNTBtOEti6-V-88" value="" style="endArrow=none;dashed=1;html=1;rounded=0;" edge="1" parent="1" source="0skMqqrGYNTBtOEti6-V-90">
          <mxGeometry width="50" height="50" relative="1" as="geometry">
            <mxPoint x="857" y="1650" as="sourcePoint" />
            <mxPoint x="856.5" y="1130" as="targetPoint" />
          </mxGeometry>
        </mxCell>
        <mxCell id="0skMqqrGYNTBtOEti6-V-76" value="" style="endArrow=none;dashed=1;html=1;rounded=0;" edge="1" parent="1">
          <mxGeometry width="50" height="50" relative="1" as="geometry">
            <mxPoint x="416" y="1480" as="sourcePoint" />
            <mxPoint x="415.73" y="1153" as="targetPoint" />
          </mxGeometry>
        </mxCell>
        <mxCell id="0skMqqrGYNTBtOEti6-V-74" value="" style="endArrow=none;dashed=1;html=1;rounded=0;" edge="1" parent="1" source="0skMqqrGYNTBtOEti6-V-78">
          <mxGeometry width="50" height="50" relative="1" as="geometry">
            <mxPoint x="152" y="1593" as="sourcePoint" />
            <mxPoint x="152" y="899" as="targetPoint" />
          </mxGeometry>
        </mxCell>
        <mxCell id="0skMqqrGYNTBtOEti6-V-3" value="" style="endArrow=none;dashed=1;html=1;rounded=0;" edge="1" parent="1" source="0skMqqrGYNTBtOEti6-V-4">
          <mxGeometry width="50" height="50" relative="1" as="geometry">
            <mxPoint x="552" y="848" as="sourcePoint" />
            <mxPoint x="552" y="61" as="targetPoint" />
          </mxGeometry>
        </mxCell>
        <mxCell id="En2CuCzcz_Kj0ne_nJwx-34" value="" style="endArrow=none;dashed=1;html=1;rounded=0;" parent="1" edge="1" source="0skMqqrGYNTBtOEti6-V-20">
          <mxGeometry width="50" height="50" relative="1" as="geometry">
            <mxPoint x="415" y="1000" as="sourcePoint" />
            <mxPoint x="415" y="60" as="targetPoint" />
          </mxGeometry>
        </mxCell>
        <mxCell id="En2CuCzcz_Kj0ne_nJwx-24" value="" style="endArrow=none;dashed=1;html=1;rounded=0;" parent="1" source="En2CuCzcz_Kj0ne_nJwx-26" edge="1">
          <mxGeometry width="50" height="50" relative="1" as="geometry">
            <mxPoint x="150" y="580" as="sourcePoint" />
            <mxPoint x="152" y="120" as="targetPoint" />
          </mxGeometry>
        </mxCell>
        <mxCell id="En2CuCzcz_Kj0ne_nJwx-25" value="" style="endArrow=none;dashed=1;html=1;rounded=0;" parent="1" source="En2CuCzcz_Kj0ne_nJwx-29" edge="1">
          <mxGeometry width="50" height="50" relative="1" as="geometry">
            <mxPoint x="275" y="580" as="sourcePoint" />
            <mxPoint x="275" y="61" as="targetPoint" />
          </mxGeometry>
        </mxCell>
        <mxCell id="En2CuCzcz_Kj0ne_nJwx-2" value="Estudante" style="shape=umlActor;verticalLabelPosition=bottom;verticalAlign=top;html=1;outlineConnect=0;" parent="1" vertex="1">
          <mxGeometry x="137" y="32" width="30" height="60" as="geometry" />
        </mxCell>
        <mxCell id="En2CuCzcz_Kj0ne_nJwx-4" value="Cadastro de Usuario" style="html=1;whiteSpace=wrap;" parent="1" vertex="1">
          <mxGeometry x="220" y="28" width="110" height="50" as="geometry" />
        </mxCell>
        <mxCell id="En2CuCzcz_Kj0ne_nJwx-5" value="" style="rounded=0;whiteSpace=wrap;html=1;" parent="1" vertex="1">
          <mxGeometry x="270" y="115" width="10" height="130" as="geometry" />
        </mxCell>
        <mxCell id="En2CuCzcz_Kj0ne_nJwx-8" value="" style="endArrow=none;dashed=1;html=1;rounded=0;" parent="1" source="En2CuCzcz_Kj0ne_nJwx-31" edge="1">
          <mxGeometry width="50" height="50" relative="1" as="geometry">
            <mxPoint x="60" y="580" as="sourcePoint" />
            <mxPoint x="60" y="110" as="targetPoint" />
          </mxGeometry>
        </mxCell>
        <mxCell id="En2CuCzcz_Kj0ne_nJwx-3" value="" style="rounded=0;whiteSpace=wrap;html=1;" parent="1" vertex="1">
          <mxGeometry x="55" y="120" width="10" height="130" as="geometry" />
        </mxCell>
        <mxCell id="En2CuCzcz_Kj0ne_nJwx-9" value="" style="shape=umlBoundary;whiteSpace=wrap;html=1;" parent="1" vertex="1">
          <mxGeometry x="823" y="35" width="50" height="40" as="geometry" />
        </mxCell>
        <mxCell id="En2CuCzcz_Kj0ne_nJwx-10" value="Banco de dados" style="text;html=1;align=center;verticalAlign=middle;whiteSpace=wrap;rounded=0;" parent="1" vertex="1">
          <mxGeometry x="828" y="75" width="60" height="30" as="geometry" />
        </mxCell>
        <mxCell id="En2CuCzcz_Kj0ne_nJwx-14" value="verificarUsuario(cpf)" style="text;html=1;align=center;verticalAlign=middle;whiteSpace=wrap;rounded=0;" parent="1" vertex="1">
          <mxGeometry x="272" y="108" width="170" height="30" as="geometry" />
        </mxCell>
        <mxCell id="En2CuCzcz_Kj0ne_nJwx-15" style="edgeStyle=orthogonalEdgeStyle;rounded=0;orthogonalLoop=1;jettySize=auto;html=1;exitX=1.089;exitY=0.128;exitDx=0;exitDy=0;exitPerimeter=0;entryX=-0.177;entryY=0.158;entryDx=0;entryDy=0;entryPerimeter=0;" parent="1" source="En2CuCzcz_Kj0ne_nJwx-5" edge="1" target="En2CuCzcz_Kj0ne_nJwx-11">
          <mxGeometry relative="1" as="geometry">
            <mxPoint x="230" y="131.0000000000001" as="sourcePoint" />
            <mxPoint x="690" y="132" as="targetPoint" />
          </mxGeometry>
        </mxCell>
        <mxCell id="En2CuCzcz_Kj0ne_nJwx-16" value="" style="endArrow=none;dashed=1;html=1;rounded=0;" parent="1" source="En2CuCzcz_Kj0ne_nJwx-39" edge="1">
          <mxGeometry width="50" height="50" relative="1" as="geometry">
            <mxPoint x="698" y="580" as="sourcePoint" />
            <mxPoint x="855" y="100" as="targetPoint" />
          </mxGeometry>
        </mxCell>
        <mxCell id="En2CuCzcz_Kj0ne_nJwx-11" value="" style="rounded=0;whiteSpace=wrap;html=1;" parent="1" vertex="1">
          <mxGeometry x="850" y="110" width="10" height="140" as="geometry" />
        </mxCell>
        <mxCell id="En2CuCzcz_Kj0ne_nJwx-18" value="Erro: usuário já cadastrado" style="html=1;verticalAlign=bottom;endArrow=open;dashed=1;endSize=8;curved=0;rounded=0;entryX=0.893;entryY=0.77;entryDx=0;entryDy=0;entryPerimeter=0;exitX=0.126;exitY=0.723;exitDx=0;exitDy=0;exitPerimeter=0;" parent="1" source="En2CuCzcz_Kj0ne_nJwx-5" edge="1">
          <mxGeometry x="0.0733" relative="1" as="geometry">
            <mxPoint x="220" y="209" as="sourcePoint" />
            <mxPoint x="63.93000000000001" y="209.10000000000002" as="targetPoint" />
            <mxPoint as="offset" />
          </mxGeometry>
        </mxCell>
        <mxCell id="En2CuCzcz_Kj0ne_nJwx-19" value="&quot;Cadastro realizado &quot;" style="html=1;verticalAlign=bottom;endArrow=open;dashed=1;endSize=8;curved=0;rounded=0;entryX=0.893;entryY=0.77;entryDx=0;entryDy=0;entryPerimeter=0;exitX=-0.096;exitY=0.971;exitDx=0;exitDy=0;exitPerimeter=0;" parent="1" edge="1">
          <mxGeometry relative="1" as="geometry">
            <mxPoint x="269.03999999999996" y="237.23000000000002" as="sourcePoint" />
            <mxPoint x="65" y="238" as="targetPoint" />
          </mxGeometry>
        </mxCell>
        <mxCell id="En2CuCzcz_Kj0ne_nJwx-20" style="edgeStyle=orthogonalEdgeStyle;rounded=0;orthogonalLoop=1;jettySize=auto;html=1;exitX=0.898;exitY=0.782;exitDx=0;exitDy=0;exitPerimeter=0;entryX=0;entryY=0.75;entryDx=0;entryDy=0;" parent="1" source="En2CuCzcz_Kj0ne_nJwx-5" edge="1" target="En2CuCzcz_Kj0ne_nJwx-11">
          <mxGeometry relative="1" as="geometry">
            <mxPoint x="290" y="216" as="sourcePoint" />
            <mxPoint x="840" y="216" as="targetPoint" />
          </mxGeometry>
        </mxCell>
        <mxCell id="0skMqqrGYNTBtOEti6-V-41" style="edgeStyle=orthogonalEdgeStyle;rounded=0;orthogonalLoop=1;jettySize=auto;html=1;entryX=-0.19;entryY=0.348;entryDx=0;entryDy=0;entryPerimeter=0;exitX=1.007;exitY=0.266;exitDx=0;exitDy=0;exitPerimeter=0;" edge="1" parent="1" source="En2CuCzcz_Kj0ne_nJwx-26" target="En2CuCzcz_Kj0ne_nJwx-29">
          <mxGeometry relative="1" as="geometry">
            <mxPoint x="267" y="816" as="targetPoint" />
          </mxGeometry>
        </mxCell>
        <mxCell id="En2CuCzcz_Kj0ne_nJwx-26" value="" style="rounded=0;whiteSpace=wrap;html=1;" parent="1" vertex="1">
          <mxGeometry x="147" y="789" width="10" height="111" as="geometry" />
        </mxCell>
        <mxCell id="En2CuCzcz_Kj0ne_nJwx-6" value="Envia formulario de cadastro" style="html=1;verticalAlign=bottom;endArrow=block;curved=0;rounded=0;entryX=0;entryY=0.192;entryDx=0;entryDy=0;entryPerimeter=0;exitX=0.886;exitY=0.209;exitDx=0;exitDy=0;exitPerimeter=0;" parent="1" target="En2CuCzcz_Kj0ne_nJwx-5" edge="1">
          <mxGeometry x="0.0155" width="80" relative="1" as="geometry">
            <mxPoint x="66.86000000000001" y="140.81" as="sourcePoint" />
            <mxPoint x="217.76000000000005" y="141.2" as="targetPoint" />
            <mxPoint as="offset" />
          </mxGeometry>
        </mxCell>
        <mxCell id="En2CuCzcz_Kj0ne_nJwx-30" value="" style="endArrow=none;dashed=1;html=1;rounded=0;" parent="1" target="En2CuCzcz_Kj0ne_nJwx-29" edge="1">
          <mxGeometry width="50" height="50" relative="1" as="geometry">
            <mxPoint x="275" y="580" as="sourcePoint" />
            <mxPoint x="275" y="61" as="targetPoint" />
          </mxGeometry>
        </mxCell>
        <mxCell id="En2CuCzcz_Kj0ne_nJwx-29" value="" style="rounded=0;whiteSpace=wrap;html=1;" parent="1" vertex="1">
          <mxGeometry x="270" y="776" width="10" height="120" as="geometry" />
        </mxCell>
        <mxCell id="En2CuCzcz_Kj0ne_nJwx-32" value="" style="endArrow=none;dashed=1;html=1;rounded=0;" parent="1" target="En2CuCzcz_Kj0ne_nJwx-31" edge="1" source="0skMqqrGYNTBtOEti6-V-1">
          <mxGeometry width="50" height="50" relative="1" as="geometry">
            <mxPoint x="60" y="770" as="sourcePoint" />
            <mxPoint x="60" y="90" as="targetPoint" />
          </mxGeometry>
        </mxCell>
        <mxCell id="En2CuCzcz_Kj0ne_nJwx-36" style="edgeStyle=orthogonalEdgeStyle;rounded=0;orthogonalLoop=1;jettySize=auto;html=1;entryX=0;entryY=0.5;entryDx=0;entryDy=0;" parent="1" edge="1">
          <mxGeometry relative="1" as="geometry">
            <mxPoint x="65" y="293" as="sourcePoint" />
            <mxPoint x="409.9999999999999" y="293" as="targetPoint" />
          </mxGeometry>
        </mxCell>
        <mxCell id="En2CuCzcz_Kj0ne_nJwx-47" style="edgeStyle=orthogonalEdgeStyle;rounded=0;orthogonalLoop=1;jettySize=auto;html=1;entryX=0;entryY=0.5;entryDx=0;entryDy=0;" parent="1" edge="1">
          <mxGeometry relative="1" as="geometry">
            <mxPoint x="65" y="384" as="sourcePoint" />
            <mxPoint x="409.9999999999999" y="384" as="targetPoint" />
          </mxGeometry>
        </mxCell>
        <mxCell id="En2CuCzcz_Kj0ne_nJwx-31" value="" style="rounded=0;whiteSpace=wrap;html=1;" parent="1" vertex="1">
          <mxGeometry x="55" y="280" width="10" height="200" as="geometry" />
        </mxCell>
        <mxCell id="En2CuCzcz_Kj0ne_nJwx-33" value="Login" style="html=1;whiteSpace=wrap;" parent="1" vertex="1">
          <mxGeometry x="360" y="27" width="110" height="50" as="geometry" />
        </mxCell>
        <mxCell id="En2CuCzcz_Kj0ne_nJwx-23" value="registrar(Professor)" style="text;html=1;align=center;verticalAlign=middle;whiteSpace=wrap;rounded=0;" parent="1" vertex="1">
          <mxGeometry x="314" y="190" width="90" height="30" as="geometry" />
        </mxCell>
        <mxCell id="En2CuCzcz_Kj0ne_nJwx-41" style="edgeStyle=orthogonalEdgeStyle;rounded=0;orthogonalLoop=1;jettySize=auto;html=1;entryX=0;entryY=0.111;entryDx=0;entryDy=0;entryPerimeter=0;" parent="1" edge="1" target="En2CuCzcz_Kj0ne_nJwx-39">
          <mxGeometry relative="1" as="geometry">
            <mxPoint x="420" y="301" as="sourcePoint" />
            <mxPoint x="693" y="301" as="targetPoint" />
          </mxGeometry>
        </mxCell>
        <mxCell id="En2CuCzcz_Kj0ne_nJwx-50" style="edgeStyle=orthogonalEdgeStyle;rounded=0;orthogonalLoop=1;jettySize=auto;html=1;entryX=-0.23;entryY=0.572;entryDx=0;entryDy=0;entryPerimeter=0;" parent="1" edge="1" target="En2CuCzcz_Kj0ne_nJwx-39">
          <mxGeometry relative="1" as="geometry">
            <mxPoint x="419.9999999999999" y="388" as="sourcePoint" />
            <mxPoint x="693" y="388" as="targetPoint" />
          </mxGeometry>
        </mxCell>
        <mxCell id="En2CuCzcz_Kj0ne_nJwx-35" value="" style="rounded=0;whiteSpace=wrap;html=1;" parent="1" vertex="1">
          <mxGeometry x="410" y="280" width="10" height="210" as="geometry" />
        </mxCell>
        <mxCell id="En2CuCzcz_Kj0ne_nJwx-37" value="Envia credenciais" style="text;html=1;align=center;verticalAlign=middle;whiteSpace=wrap;rounded=0;" parent="1" vertex="1">
          <mxGeometry x="143" y="268" width="130" height="30" as="geometry" />
        </mxCell>
        <mxCell id="En2CuCzcz_Kj0ne_nJwx-40" value="" style="endArrow=none;dashed=1;html=1;rounded=0;" parent="1" target="En2CuCzcz_Kj0ne_nJwx-39" edge="1" source="0skMqqrGYNTBtOEti6-V-15">
          <mxGeometry width="50" height="50" relative="1" as="geometry">
            <mxPoint x="857" y="1050" as="sourcePoint" />
            <mxPoint x="854.58" y="102" as="targetPoint" />
          </mxGeometry>
        </mxCell>
        <mxCell id="En2CuCzcz_Kj0ne_nJwx-39" value="" style="rounded=0;whiteSpace=wrap;html=1;" parent="1" vertex="1">
          <mxGeometry x="850" y="280" width="10" height="190" as="geometry" />
        </mxCell>
        <mxCell id="En2CuCzcz_Kj0ne_nJwx-44" value="Credenciais inválidas" style="shape=umlFrame;whiteSpace=wrap;html=1;pointerEvents=0;width=170;height=20;" parent="1" vertex="1">
          <mxGeometry x="31" y="312" width="879" height="129" as="geometry" />
        </mxCell>
        <mxCell id="En2CuCzcz_Kj0ne_nJwx-46" value="Erro: credenciais inválidas" style="html=1;verticalAlign=bottom;endArrow=open;dashed=1;endSize=8;curved=0;rounded=0;entryX=1.001;entryY=0.571;entryDx=0;entryDy=0;entryPerimeter=0;" parent="1" edge="1">
          <mxGeometry relative="1" as="geometry">
            <mxPoint x="410" y="352" as="sourcePoint" />
            <mxPoint x="65.00999999999988" y="351.93999999999994" as="targetPoint" />
          </mxGeometry>
        </mxCell>
        <mxCell id="En2CuCzcz_Kj0ne_nJwx-49" value="Solicitação de alteração de senha&amp;nbsp;" style="text;html=1;align=center;verticalAlign=middle;whiteSpace=wrap;rounded=0;" parent="1" vertex="1">
          <mxGeometry x="82" y="360" width="204" height="30" as="geometry" />
        </mxCell>
        <mxCell id="En2CuCzcz_Kj0ne_nJwx-53" value="&quot;Senha alterada&quot;" style="html=1;verticalAlign=bottom;endArrow=open;dashed=1;endSize=8;curved=0;rounded=0;entryX=0.992;entryY=0.909;entryDx=0;entryDy=0;entryPerimeter=0;" parent="1" edge="1">
          <mxGeometry relative="1" as="geometry">
            <mxPoint x="410" y="411" as="sourcePoint" />
            <mxPoint x="64.91999999999996" y="411.16999999999996" as="targetPoint" />
          </mxGeometry>
        </mxCell>
        <mxCell id="En2CuCzcz_Kj0ne_nJwx-54" value="&quot;Login realizado com sucesso&quot;" style="html=1;verticalAlign=bottom;endArrow=open;dashed=1;endSize=8;curved=0;rounded=0;" parent="1" edge="1">
          <mxGeometry relative="1" as="geometry">
            <mxPoint x="407" y="460" as="sourcePoint" />
            <mxPoint x="66" y="460" as="targetPoint" />
          </mxGeometry>
        </mxCell>
        <mxCell id="En2CuCzcz_Kj0ne_nJwx-55" value="&quot;professor&quot;" style="html=1;verticalAlign=bottom;endArrow=open;dashed=1;endSize=8;curved=0;rounded=0;entryX=0.845;entryY=0.619;entryDx=0;entryDy=0;entryPerimeter=0;exitX=-0.018;exitY=0.678;exitDx=0;exitDy=0;exitPerimeter=0;" parent="1" target="En2CuCzcz_Kj0ne_nJwx-35" edge="1" source="En2CuCzcz_Kj0ne_nJwx-39">
          <mxGeometry relative="1" as="geometry">
            <mxPoint x="690" y="410" as="sourcePoint" />
            <mxPoint x="540" y="410" as="targetPoint" />
          </mxGeometry>
        </mxCell>
        <mxCell id="En2CuCzcz_Kj0ne_nJwx-56" value="&quot;professor&quot;" style="html=1;verticalAlign=bottom;endArrow=open;dashed=1;endSize=8;curved=0;rounded=0;entryX=1.047;entryY=0.649;entryDx=0;entryDy=0;entryPerimeter=0;exitX=-0.124;exitY=0.94;exitDx=0;exitDy=0;exitPerimeter=0;" parent="1" edge="1" source="En2CuCzcz_Kj0ne_nJwx-39">
          <mxGeometry relative="1" as="geometry">
            <mxPoint x="690" y="459" as="sourcePoint" />
            <mxPoint x="420" y="459" as="targetPoint" />
          </mxGeometry>
        </mxCell>
        <mxCell id="0skMqqrGYNTBtOEti6-V-7" style="edgeStyle=orthogonalEdgeStyle;rounded=0;orthogonalLoop=1;jettySize=auto;html=1;entryX=0;entryY=0.5;entryDx=0;entryDy=0;exitX=1.5;exitY=0.375;exitDx=0;exitDy=0;exitPerimeter=0;" edge="1" parent="1" source="0skMqqrGYNTBtOEti6-V-1" target="0skMqqrGYNTBtOEti6-V-6">
          <mxGeometry relative="1" as="geometry">
            <mxPoint x="350" y="580" as="targetPoint" />
            <mxPoint x="70" y="560" as="sourcePoint" />
          </mxGeometry>
        </mxCell>
        <mxCell id="0skMqqrGYNTBtOEti6-V-9" value="Envio das credenciais" style="edgeLabel;html=1;align=center;verticalAlign=middle;resizable=0;points=[];" vertex="1" connectable="0" parent="0skMqqrGYNTBtOEti6-V-7">
          <mxGeometry x="-0.3013" y="1" relative="1" as="geometry">
            <mxPoint x="25" y="-9" as="offset" />
          </mxGeometry>
        </mxCell>
        <mxCell id="0skMqqrGYNTBtOEti6-V-2" value="Turma" style="html=1;whiteSpace=wrap;" vertex="1" parent="1">
          <mxGeometry x="494" y="27" width="110" height="50" as="geometry" />
        </mxCell>
        <mxCell id="0skMqqrGYNTBtOEti6-V-5" value="" style="endArrow=none;dashed=1;html=1;rounded=0;" edge="1" parent="1" target="0skMqqrGYNTBtOEti6-V-4">
          <mxGeometry width="50" height="50" relative="1" as="geometry">
            <mxPoint x="550" y="1480" as="sourcePoint" />
            <mxPoint x="552" y="61" as="targetPoint" />
          </mxGeometry>
        </mxCell>
        <mxCell id="0skMqqrGYNTBtOEti6-V-17" style="edgeStyle=orthogonalEdgeStyle;rounded=0;orthogonalLoop=1;jettySize=auto;html=1;entryX=0;entryY=0.5;entryDx=0;entryDy=0;" edge="1" parent="1" source="0skMqqrGYNTBtOEti6-V-4" target="0skMqqrGYNTBtOEti6-V-15">
          <mxGeometry relative="1" as="geometry" />
        </mxCell>
        <mxCell id="0skMqqrGYNTBtOEti6-V-4" value="" style="rounded=0;whiteSpace=wrap;html=1;" vertex="1" parent="1">
          <mxGeometry x="545" y="550" width="10" height="60" as="geometry" />
        </mxCell>
        <mxCell id="0skMqqrGYNTBtOEti6-V-10" style="edgeStyle=orthogonalEdgeStyle;rounded=0;orthogonalLoop=1;jettySize=auto;html=1;entryX=0.111;entryY=0.681;entryDx=0;entryDy=0;entryPerimeter=0;" edge="1" parent="1">
          <mxGeometry relative="1" as="geometry">
            <mxPoint x="546.1099999999999" y="565.86" as="targetPoint" />
            <mxPoint x="420" y="565" as="sourcePoint" />
          </mxGeometry>
        </mxCell>
        <mxCell id="0skMqqrGYNTBtOEti6-V-6" value="" style="rounded=0;whiteSpace=wrap;html=1;" vertex="1" parent="1">
          <mxGeometry x="410" y="530" width="10" height="60" as="geometry" />
        </mxCell>
        <mxCell id="0skMqqrGYNTBtOEti6-V-8" value="" style="endArrow=none;dashed=1;html=1;rounded=0;" edge="1" parent="1" source="0skMqqrGYNTBtOEti6-V-22" target="0skMqqrGYNTBtOEti6-V-1">
          <mxGeometry width="50" height="50" relative="1" as="geometry">
            <mxPoint x="60" y="770" as="sourcePoint" />
            <mxPoint x="60" y="480" as="targetPoint" />
          </mxGeometry>
        </mxCell>
        <mxCell id="0skMqqrGYNTBtOEti6-V-1" value="" style="rounded=0;whiteSpace=wrap;html=1;" vertex="1" parent="1">
          <mxGeometry x="55" y="530" width="10" height="80" as="geometry" />
        </mxCell>
        <mxCell id="0skMqqrGYNTBtOEti6-V-12" value="&lt;span style=&quot;font-size: 11px; text-wrap: nowrap; background-color: rgb(255, 255, 255);&quot;&gt;Envio dos dados&lt;/span&gt;&lt;div&gt;&lt;span style=&quot;font-size: 11px; text-wrap: nowrap; background-color: rgb(255, 255, 255);&quot;&gt;&amp;nbsp;para cadastro de turma&lt;/span&gt;&lt;/div&gt;" style="text;html=1;align=center;verticalAlign=middle;whiteSpace=wrap;rounded=0;" vertex="1" parent="1">
          <mxGeometry x="426" y="515" width="110" height="60" as="geometry" />
        </mxCell>
        <mxCell id="0skMqqrGYNTBtOEti6-V-16" value="" style="endArrow=none;dashed=1;html=1;rounded=0;" edge="1" parent="1" source="0skMqqrGYNTBtOEti6-V-26" target="0skMqqrGYNTBtOEti6-V-15">
          <mxGeometry width="50" height="50" relative="1" as="geometry">
            <mxPoint x="857" y="1050" as="sourcePoint" />
            <mxPoint x="855" y="470" as="targetPoint" />
          </mxGeometry>
        </mxCell>
        <mxCell id="0skMqqrGYNTBtOEti6-V-15" value="" style="rounded=0;whiteSpace=wrap;html=1;" vertex="1" parent="1">
          <mxGeometry x="850" y="550" width="10" height="60" as="geometry" />
        </mxCell>
        <mxCell id="0skMqqrGYNTBtOEti6-V-18" value="registrar(Turma)" style="text;html=1;align=center;verticalAlign=middle;whiteSpace=wrap;rounded=0;" vertex="1" parent="1">
          <mxGeometry x="560" y="555" width="110" height="30" as="geometry" />
        </mxCell>
        <mxCell id="0skMqqrGYNTBtOEti6-V-19" value="&quot;Turma registrada com sucesso&quot;" style="html=1;verticalAlign=bottom;endArrow=open;dashed=1;endSize=8;curved=0;rounded=0;entryX=0.91;entryY=0.867;entryDx=0;entryDy=0;entryPerimeter=0;" edge="1" parent="1" target="0skMqqrGYNTBtOEti6-V-1">
          <mxGeometry relative="1" as="geometry">
            <mxPoint x="545" y="600" as="sourcePoint" />
            <mxPoint x="70" y="600" as="targetPoint" />
          </mxGeometry>
        </mxCell>
        <mxCell id="0skMqqrGYNTBtOEti6-V-21" value="" style="endArrow=none;dashed=1;html=1;rounded=0;" edge="1" parent="1" target="0skMqqrGYNTBtOEti6-V-20">
          <mxGeometry width="50" height="50" relative="1" as="geometry">
            <mxPoint x="415" y="1000" as="sourcePoint" />
            <mxPoint x="415" y="60" as="targetPoint" />
          </mxGeometry>
        </mxCell>
        <mxCell id="0skMqqrGYNTBtOEti6-V-29" style="edgeStyle=orthogonalEdgeStyle;rounded=0;orthogonalLoop=1;jettySize=auto;html=1;entryX=0;entryY=0.222;entryDx=0;entryDy=0;exitX=1;exitY=0.25;exitDx=0;exitDy=0;entryPerimeter=0;" edge="1" parent="1" source="0skMqqrGYNTBtOEti6-V-20" target="0skMqqrGYNTBtOEti6-V-36">
          <mxGeometry relative="1" as="geometry">
            <mxPoint x="546.1099999999999" y="670.22" as="targetPoint" />
          </mxGeometry>
        </mxCell>
        <mxCell id="0skMqqrGYNTBtOEti6-V-20" value="" style="rounded=0;whiteSpace=wrap;html=1;" vertex="1" parent="1">
          <mxGeometry x="410" y="650" width="10" height="80" as="geometry" />
        </mxCell>
        <mxCell id="0skMqqrGYNTBtOEti6-V-23" value="" style="endArrow=none;dashed=1;html=1;rounded=0;" edge="1" parent="1" target="0skMqqrGYNTBtOEti6-V-22">
          <mxGeometry width="50" height="50" relative="1" as="geometry">
            <mxPoint x="60" y="1480" as="sourcePoint" />
            <mxPoint x="60" y="610" as="targetPoint" />
          </mxGeometry>
        </mxCell>
        <mxCell id="0skMqqrGYNTBtOEti6-V-22" value="" style="rounded=0;whiteSpace=wrap;html=1;" vertex="1" parent="1">
          <mxGeometry x="55" y="630" width="10" height="80" as="geometry" />
        </mxCell>
        <mxCell id="0skMqqrGYNTBtOEti6-V-30" style="edgeStyle=orthogonalEdgeStyle;rounded=0;orthogonalLoop=1;jettySize=auto;html=1;entryX=0;entryY=0.5;entryDx=0;entryDy=0;exitX=1;exitY=0.5;exitDx=0;exitDy=0;" edge="1" parent="1">
          <mxGeometry relative="1" as="geometry">
            <mxPoint x="679.9999999999998" y="662" as="sourcePoint" />
            <mxPoint x="849.9999999999998" y="662" as="targetPoint" />
          </mxGeometry>
        </mxCell>
        <mxCell id="0skMqqrGYNTBtOEti6-V-27" value="" style="endArrow=none;dashed=1;html=1;rounded=0;" edge="1" parent="1" source="0skMqqrGYNTBtOEti6-V-39" target="0skMqqrGYNTBtOEti6-V-26">
          <mxGeometry width="50" height="50" relative="1" as="geometry">
            <mxPoint x="857" y="1050" as="sourcePoint" />
            <mxPoint x="855" y="610" as="targetPoint" />
          </mxGeometry>
        </mxCell>
        <mxCell id="0skMqqrGYNTBtOEti6-V-26" value="" style="rounded=0;whiteSpace=wrap;html=1;" vertex="1" parent="1">
          <mxGeometry x="850" y="650" width="10" height="60" as="geometry" />
        </mxCell>
        <mxCell id="0skMqqrGYNTBtOEti6-V-28" style="edgeStyle=orthogonalEdgeStyle;rounded=0;orthogonalLoop=1;jettySize=auto;html=1;entryX=0;entryY=0.25;entryDx=0;entryDy=0;" edge="1" parent="1" source="0skMqqrGYNTBtOEti6-V-22" target="0skMqqrGYNTBtOEti6-V-20">
          <mxGeometry relative="1" as="geometry" />
        </mxCell>
        <mxCell id="0skMqqrGYNTBtOEti6-V-31" value="Envio das credenciais" style="edgeLabel;html=1;align=center;verticalAlign=middle;resizable=0;points=[];" vertex="1" connectable="0" parent="0skMqqrGYNTBtOEti6-V-28">
          <mxGeometry x="-0.1212" y="2" relative="1" as="geometry">
            <mxPoint y="-8" as="offset" />
          </mxGeometry>
        </mxCell>
        <mxCell id="0skMqqrGYNTBtOEti6-V-32" value="&quot;Atividade criada com sucesso&quot;" style="html=1;verticalAlign=bottom;endArrow=open;dashed=1;endSize=8;curved=0;rounded=0;exitX=-0.155;exitY=0.559;exitDx=0;exitDy=0;entryX=1.324;entryY=0.619;entryDx=0;entryDy=0;entryPerimeter=0;exitPerimeter=0;" edge="1" parent="1" source="0skMqqrGYNTBtOEti6-V-36" target="0skMqqrGYNTBtOEti6-V-20">
          <mxGeometry x="0.1194" y="-1" relative="1" as="geometry">
            <mxPoint x="545.05" y="699.8599999999999" as="sourcePoint" />
            <mxPoint x="450" y="699" as="targetPoint" />
            <mxPoint as="offset" />
          </mxGeometry>
        </mxCell>
        <mxCell id="0skMqqrGYNTBtOEti6-V-33" value="&lt;span style=&quot;font-size: 11px; text-wrap: nowrap; background-color: rgb(255, 255, 255);&quot;&gt;Envio dos dados&lt;/span&gt;&lt;div&gt;&lt;span style=&quot;font-size: 11px; text-wrap: nowrap; background-color: rgb(255, 255, 255);&quot;&gt;&amp;nbsp;para criar atividade&lt;/span&gt;&lt;/div&gt;" style="text;html=1;align=center;verticalAlign=middle;whiteSpace=wrap;rounded=0;" vertex="1" parent="1">
          <mxGeometry x="426" y="620" width="110" height="60" as="geometry" />
        </mxCell>
        <mxCell id="0skMqqrGYNTBtOEti6-V-34" value="Atividades" style="html=1;whiteSpace=wrap;" vertex="1" parent="1">
          <mxGeometry x="620" y="27" width="110" height="50" as="geometry" />
        </mxCell>
        <mxCell id="0skMqqrGYNTBtOEti6-V-35" value="" style="endArrow=none;dashed=1;html=1;rounded=0;" edge="1" parent="1" source="0skMqqrGYNTBtOEti6-V-36">
          <mxGeometry width="50" height="50" relative="1" as="geometry">
            <mxPoint x="674" y="730" as="sourcePoint" />
            <mxPoint x="676" y="60" as="targetPoint" />
          </mxGeometry>
        </mxCell>
        <mxCell id="0skMqqrGYNTBtOEti6-V-37" value="" style="endArrow=none;dashed=1;html=1;rounded=0;" edge="1" parent="1" source="0skMqqrGYNTBtOEti6-V-84" target="0skMqqrGYNTBtOEti6-V-36">
          <mxGeometry width="50" height="50" relative="1" as="geometry">
            <mxPoint x="674" y="1680" as="sourcePoint" />
            <mxPoint x="676" y="60" as="targetPoint" />
          </mxGeometry>
        </mxCell>
        <mxCell id="0skMqqrGYNTBtOEti6-V-36" value="" style="rounded=0;whiteSpace=wrap;html=1;" vertex="1" parent="1">
          <mxGeometry x="670" y="650" width="10" height="90" as="geometry" />
        </mxCell>
        <mxCell id="0skMqqrGYNTBtOEti6-V-38" value="registrar(Atividade)" style="text;html=1;align=center;verticalAlign=middle;whiteSpace=wrap;rounded=0;" vertex="1" parent="1">
          <mxGeometry x="700" y="637" width="110" height="30" as="geometry" />
        </mxCell>
        <mxCell id="0skMqqrGYNTBtOEti6-V-40" value="" style="endArrow=none;dashed=1;html=1;rounded=0;" edge="1" parent="1" target="0skMqqrGYNTBtOEti6-V-39">
          <mxGeometry width="50" height="50" relative="1" as="geometry">
            <mxPoint x="857" y="1050" as="sourcePoint" />
            <mxPoint x="855" y="710" as="targetPoint" />
          </mxGeometry>
        </mxCell>
        <mxCell id="0skMqqrGYNTBtOEti6-V-39" value="" style="rounded=0;whiteSpace=wrap;html=1;" vertex="1" parent="1">
          <mxGeometry x="850" y="776" width="10" height="110" as="geometry" />
        </mxCell>
        <mxCell id="0skMqqrGYNTBtOEti6-V-42" value="Envia formulário de cadastro" style="text;html=1;align=center;verticalAlign=middle;whiteSpace=wrap;rounded=0;" vertex="1" parent="1">
          <mxGeometry x="157" y="786" width="102" height="30" as="geometry" />
        </mxCell>
        <mxCell id="En2CuCzcz_Kj0ne_nJwx-43" value="login(email,senha)" style="text;html=1;align=center;verticalAlign=middle;whiteSpace=wrap;rounded=0;" parent="1" vertex="1">
          <mxGeometry x="426" y="276" width="140" height="30" as="geometry" />
        </mxCell>
        <mxCell id="0skMqqrGYNTBtOEti6-V-43" value="editar(id, professor)" style="text;html=1;align=center;verticalAlign=middle;whiteSpace=wrap;rounded=0;" vertex="1" parent="1">
          <mxGeometry x="426" y="360" width="140" height="30" as="geometry" />
        </mxCell>
        <mxCell id="0skMqqrGYNTBtOEti6-V-44" style="edgeStyle=orthogonalEdgeStyle;rounded=0;orthogonalLoop=1;jettySize=auto;html=1;entryX=1;entryY=0.5;entryDx=0;entryDy=0;" edge="1" parent="1" source="En2CuCzcz_Kj0ne_nJwx-5" target="0skMqqrGYNTBtOEti6-V-46">
          <mxGeometry relative="1" as="geometry">
            <mxPoint x="290" y="180" as="targetPoint" />
            <Array as="points">
              <mxPoint x="300" y="150" />
              <mxPoint x="300" y="180" />
              <mxPoint x="286" y="180" />
            </Array>
          </mxGeometry>
        </mxCell>
        <mxCell id="0skMqqrGYNTBtOEti6-V-45" value="throw exception&lt;div&gt;&quot;Usuário não cadastrado&quot;&lt;/div&gt;" style="edgeLabel;html=1;align=center;verticalAlign=middle;resizable=0;points=[];" vertex="1" connectable="0" parent="0skMqqrGYNTBtOEti6-V-44">
          <mxGeometry x="0.1132" y="2" relative="1" as="geometry">
            <mxPoint x="63" y="7" as="offset" />
          </mxGeometry>
        </mxCell>
        <mxCell id="0skMqqrGYNTBtOEti6-V-46" value="" style="rounded=0;whiteSpace=wrap;html=1;" vertex="1" parent="1">
          <mxGeometry x="276" y="175" width="10" height="10" as="geometry" />
        </mxCell>
        <mxCell id="0skMqqrGYNTBtOEti6-V-47" style="edgeStyle=orthogonalEdgeStyle;rounded=0;orthogonalLoop=1;jettySize=auto;html=1;entryX=1;entryY=0.5;entryDx=0;entryDy=0;" edge="1" parent="1" target="0skMqqrGYNTBtOEti6-V-49">
          <mxGeometry relative="1" as="geometry">
            <mxPoint x="280" y="831" as="sourcePoint" />
            <mxPoint x="290" y="861" as="targetPoint" />
            <Array as="points">
              <mxPoint x="300" y="831" />
              <mxPoint x="300" y="861" />
              <mxPoint x="286" y="861" />
            </Array>
          </mxGeometry>
        </mxCell>
        <mxCell id="0skMqqrGYNTBtOEti6-V-48" value="throw exception&lt;div&gt;&quot;Usuário não cadastrado&quot;&lt;/div&gt;" style="edgeLabel;html=1;align=center;verticalAlign=middle;resizable=0;points=[];" vertex="1" connectable="0" parent="0skMqqrGYNTBtOEti6-V-47">
          <mxGeometry x="0.1132" y="2" relative="1" as="geometry">
            <mxPoint x="63" y="7" as="offset" />
          </mxGeometry>
        </mxCell>
        <mxCell id="0skMqqrGYNTBtOEti6-V-49" value="" style="rounded=0;whiteSpace=wrap;html=1;" vertex="1" parent="1">
          <mxGeometry x="276" y="856" width="10" height="10" as="geometry" />
        </mxCell>
        <mxCell id="En2CuCzcz_Kj0ne_nJwx-17" value="Verificar se usuário existe" style="shape=umlFrame;whiteSpace=wrap;html=1;pointerEvents=0;width=170;height=20;" parent="1" vertex="1">
          <mxGeometry x="30" y="162" width="880" height="100" as="geometry" />
        </mxCell>
        <mxCell id="0skMqqrGYNTBtOEti6-V-51" style="edgeStyle=orthogonalEdgeStyle;rounded=0;orthogonalLoop=1;jettySize=auto;html=1;entryX=0.318;entryY=0.55;entryDx=0;entryDy=0;entryPerimeter=0;" edge="1" parent="1">
          <mxGeometry relative="1" as="geometry">
            <mxPoint x="280" y="808" as="sourcePoint" />
            <mxPoint x="853.1799999999998" y="808.5" as="targetPoint" />
          </mxGeometry>
        </mxCell>
        <mxCell id="0skMqqrGYNTBtOEti6-V-52" value="verificarUsuario(cpf)" style="text;html=1;align=center;verticalAlign=middle;whiteSpace=wrap;rounded=0;" vertex="1" parent="1">
          <mxGeometry x="271" y="786" width="170" height="30" as="geometry" />
        </mxCell>
        <mxCell id="0skMqqrGYNTBtOEti6-V-53" value="Verificar se usuário existe" style="shape=umlFrame;whiteSpace=wrap;html=1;pointerEvents=0;width=170;height=20;" vertex="1" parent="1">
          <mxGeometry x="30" y="838" width="880" height="82" as="geometry" />
        </mxCell>
        <mxCell id="0skMqqrGYNTBtOEti6-V-55" style="edgeStyle=orthogonalEdgeStyle;rounded=0;orthogonalLoop=1;jettySize=auto;html=1;" edge="1" parent="1">
          <mxGeometry relative="1" as="geometry">
            <mxPoint x="280" y="880.0476190476188" as="sourcePoint" />
            <mxPoint x="851" y="881" as="targetPoint" />
          </mxGeometry>
        </mxCell>
        <mxCell id="0skMqqrGYNTBtOEti6-V-56" value="registrar(Aluno)" style="text;html=1;align=center;verticalAlign=middle;whiteSpace=wrap;rounded=0;" vertex="1" parent="1">
          <mxGeometry x="436" y="856" width="90" height="30" as="geometry" />
        </mxCell>
        <mxCell id="0skMqqrGYNTBtOEti6-V-57" value="Cadastro realizado" style="html=1;verticalAlign=bottom;endArrow=open;dashed=1;endSize=8;curved=0;rounded=0;entryX=1;entryY=0.75;entryDx=0;entryDy=0;" edge="1" parent="1" target="En2CuCzcz_Kj0ne_nJwx-26">
          <mxGeometry relative="1" as="geometry">
            <mxPoint x="270" y="872" as="sourcePoint" />
            <mxPoint x="190" y="866" as="targetPoint" />
          </mxGeometry>
        </mxCell>
        <mxCell id="0skMqqrGYNTBtOEti6-V-58" style="edgeStyle=orthogonalEdgeStyle;rounded=0;orthogonalLoop=1;jettySize=auto;html=1;entryX=0;entryY=0.5;entryDx=0;entryDy=0;" edge="1" parent="1">
          <mxGeometry relative="1" as="geometry">
            <mxPoint x="160" y="995" as="sourcePoint" />
            <mxPoint x="411.9999999999999" y="995" as="targetPoint" />
          </mxGeometry>
        </mxCell>
        <mxCell id="0skMqqrGYNTBtOEti6-V-75" style="edgeStyle=orthogonalEdgeStyle;rounded=0;orthogonalLoop=1;jettySize=auto;html=1;entryX=0;entryY=0.5;entryDx=0;entryDy=0;" edge="1" parent="1" target="0skMqqrGYNTBtOEti6-V-62">
          <mxGeometry relative="1" as="geometry">
            <mxPoint x="160" y="1080" as="sourcePoint" />
          </mxGeometry>
        </mxCell>
        <mxCell id="0skMqqrGYNTBtOEti6-V-59" value="" style="rounded=0;whiteSpace=wrap;html=1;" vertex="1" parent="1">
          <mxGeometry x="147" y="982" width="10" height="200" as="geometry" />
        </mxCell>
        <mxCell id="0skMqqrGYNTBtOEti6-V-60" style="edgeStyle=orthogonalEdgeStyle;rounded=0;orthogonalLoop=1;jettySize=auto;html=1;entryX=0;entryY=0.111;entryDx=0;entryDy=0;entryPerimeter=0;" edge="1" parent="1" target="0skMqqrGYNTBtOEti6-V-64">
          <mxGeometry relative="1" as="geometry">
            <mxPoint x="422" y="1003" as="sourcePoint" />
            <mxPoint x="695" y="1003" as="targetPoint" />
          </mxGeometry>
        </mxCell>
        <mxCell id="0skMqqrGYNTBtOEti6-V-61" style="edgeStyle=orthogonalEdgeStyle;rounded=0;orthogonalLoop=1;jettySize=auto;html=1;entryX=-0.23;entryY=0.572;entryDx=0;entryDy=0;entryPerimeter=0;" edge="1" parent="1" target="0skMqqrGYNTBtOEti6-V-64">
          <mxGeometry relative="1" as="geometry">
            <mxPoint x="421.9999999999999" y="1090" as="sourcePoint" />
            <mxPoint x="695" y="1090" as="targetPoint" />
          </mxGeometry>
        </mxCell>
        <mxCell id="0skMqqrGYNTBtOEti6-V-62" value="" style="rounded=0;whiteSpace=wrap;html=1;" vertex="1" parent="1">
          <mxGeometry x="411" y="982" width="10" height="210" as="geometry" />
        </mxCell>
        <mxCell id="0skMqqrGYNTBtOEti6-V-63" value="Envia credenciais" style="text;html=1;align=center;verticalAlign=middle;whiteSpace=wrap;rounded=0;" vertex="1" parent="1">
          <mxGeometry x="270" y="970" width="130" height="30" as="geometry" />
        </mxCell>
        <mxCell id="0skMqqrGYNTBtOEti6-V-64" value="" style="rounded=0;whiteSpace=wrap;html=1;" vertex="1" parent="1">
          <mxGeometry x="852" y="982" width="10" height="190" as="geometry" />
        </mxCell>
        <mxCell id="0skMqqrGYNTBtOEti6-V-65" value="Credenciais inválidas" style="shape=umlFrame;whiteSpace=wrap;html=1;pointerEvents=0;width=170;height=20;" vertex="1" parent="1">
          <mxGeometry x="33" y="1014" width="879" height="129" as="geometry" />
        </mxCell>
        <mxCell id="0skMqqrGYNTBtOEti6-V-66" value="Erro: credenciais inválidas" style="html=1;verticalAlign=bottom;endArrow=open;dashed=1;endSize=8;curved=0;rounded=0;" edge="1" parent="1">
          <mxGeometry relative="1" as="geometry">
            <mxPoint x="412" y="1040" as="sourcePoint" />
            <mxPoint x="160" y="1040" as="targetPoint" />
          </mxGeometry>
        </mxCell>
        <mxCell id="0skMqqrGYNTBtOEti6-V-67" value="Solicitação de alteração de senha&amp;nbsp;" style="text;html=1;align=center;verticalAlign=middle;whiteSpace=wrap;rounded=0;" vertex="1" parent="1">
          <mxGeometry x="188" y="1057" width="204" height="30" as="geometry" />
        </mxCell>
        <mxCell id="0skMqqrGYNTBtOEti6-V-68" value="&quot;Senha alterada&quot;" style="html=1;verticalAlign=bottom;endArrow=open;dashed=1;endSize=8;curved=0;rounded=0;entryX=1.361;entryY=0.66;entryDx=0;entryDy=0;entryPerimeter=0;" edge="1" parent="1" target="0skMqqrGYNTBtOEti6-V-59">
          <mxGeometry relative="1" as="geometry">
            <mxPoint x="412" y="1113" as="sourcePoint" />
            <mxPoint x="66.91999999999996" y="1113.17" as="targetPoint" />
          </mxGeometry>
        </mxCell>
        <mxCell id="0skMqqrGYNTBtOEti6-V-69" value="&quot;Login realizado com sucesso&quot;" style="html=1;verticalAlign=bottom;endArrow=open;dashed=1;endSize=8;curved=0;rounded=0;" edge="1" parent="1">
          <mxGeometry relative="1" as="geometry">
            <mxPoint x="409" y="1162" as="sourcePoint" />
            <mxPoint x="160" y="1162" as="targetPoint" />
          </mxGeometry>
        </mxCell>
        <mxCell id="0skMqqrGYNTBtOEti6-V-70" value="&quot;aluno&quot;" style="html=1;verticalAlign=bottom;endArrow=open;dashed=1;endSize=8;curved=0;rounded=0;entryX=0.845;entryY=0.619;entryDx=0;entryDy=0;entryPerimeter=0;exitX=-0.018;exitY=0.678;exitDx=0;exitDy=0;exitPerimeter=0;" edge="1" parent="1" source="0skMqqrGYNTBtOEti6-V-64" target="0skMqqrGYNTBtOEti6-V-62">
          <mxGeometry relative="1" as="geometry">
            <mxPoint x="692" y="1112" as="sourcePoint" />
            <mxPoint x="542" y="1112" as="targetPoint" />
          </mxGeometry>
        </mxCell>
        <mxCell id="0skMqqrGYNTBtOEti6-V-71" value="&quot;aluno&quot;" style="html=1;verticalAlign=bottom;endArrow=open;dashed=1;endSize=8;curved=0;rounded=0;entryX=1.047;entryY=0.649;entryDx=0;entryDy=0;entryPerimeter=0;exitX=-0.124;exitY=0.94;exitDx=0;exitDy=0;exitPerimeter=0;" edge="1" parent="1" source="0skMqqrGYNTBtOEti6-V-64">
          <mxGeometry relative="1" as="geometry">
            <mxPoint x="692" y="1161" as="sourcePoint" />
            <mxPoint x="422" y="1161" as="targetPoint" />
          </mxGeometry>
        </mxCell>
        <mxCell id="0skMqqrGYNTBtOEti6-V-72" value="login(email,senha)" style="text;html=1;align=center;verticalAlign=middle;whiteSpace=wrap;rounded=0;" vertex="1" parent="1">
          <mxGeometry x="428" y="978" width="140" height="30" as="geometry" />
        </mxCell>
        <mxCell id="0skMqqrGYNTBtOEti6-V-73" value="editar(id, professor)" style="text;html=1;align=center;verticalAlign=middle;whiteSpace=wrap;rounded=0;" vertex="1" parent="1">
          <mxGeometry x="428" y="1062" width="140" height="30" as="geometry" />
        </mxCell>
        <mxCell id="0skMqqrGYNTBtOEti6-V-77" value="" style="rounded=0;whiteSpace=wrap;html=1;" vertex="1" parent="1">
          <mxGeometry x="411" y="1234" width="10" height="196" as="geometry" />
        </mxCell>
        <mxCell id="0skMqqrGYNTBtOEti6-V-79" value="" style="endArrow=none;dashed=1;html=1;rounded=0;" edge="1" parent="1" target="0skMqqrGYNTBtOEti6-V-78">
          <mxGeometry width="50" height="50" relative="1" as="geometry">
            <mxPoint x="152" y="1480" as="sourcePoint" />
            <mxPoint x="152" y="899" as="targetPoint" />
          </mxGeometry>
        </mxCell>
        <mxCell id="0skMqqrGYNTBtOEti6-V-80" style="edgeStyle=orthogonalEdgeStyle;rounded=0;orthogonalLoop=1;jettySize=auto;html=1;" edge="1" parent="1">
          <mxGeometry relative="1" as="geometry">
            <mxPoint x="410" y="1265.0000000000002" as="targetPoint" />
            <mxPoint x="157" y="1265" as="sourcePoint" />
          </mxGeometry>
        </mxCell>
        <mxCell id="0skMqqrGYNTBtOEti6-V-78" value="" style="rounded=0;whiteSpace=wrap;html=1;" vertex="1" parent="1">
          <mxGeometry x="147" y="1230" width="10" height="80" as="geometry" />
        </mxCell>
        <mxCell id="0skMqqrGYNTBtOEti6-V-82" value="Visualizar atividades" style="text;html=1;align=center;verticalAlign=middle;whiteSpace=wrap;rounded=0;" vertex="1" parent="1">
          <mxGeometry x="480" y="1245" width="124" height="30" as="geometry" />
        </mxCell>
        <mxCell id="0skMqqrGYNTBtOEti6-V-83" value="Envia credenciais" style="text;html=1;align=center;verticalAlign=middle;whiteSpace=wrap;rounded=0;" vertex="1" parent="1">
          <mxGeometry x="190" y="1241" width="130" height="30" as="geometry" />
        </mxCell>
        <mxCell id="0skMqqrGYNTBtOEti6-V-85" value="" style="endArrow=none;dashed=1;html=1;rounded=0;" edge="1" parent="1" target="0skMqqrGYNTBtOEti6-V-84">
          <mxGeometry width="50" height="50" relative="1" as="geometry">
            <mxPoint x="674" y="1480" as="sourcePoint" />
            <mxPoint x="675" y="740" as="targetPoint" />
          </mxGeometry>
        </mxCell>
        <mxCell id="0skMqqrGYNTBtOEti6-V-89" style="edgeStyle=orthogonalEdgeStyle;rounded=0;orthogonalLoop=1;jettySize=auto;html=1;entryX=0;entryY=0.552;entryDx=0;entryDy=0;entryPerimeter=0;" edge="1" parent="1">
          <mxGeometry relative="1" as="geometry">
            <mxPoint x="850.0000000000002" y="1275.9199999999998" as="targetPoint" />
            <mxPoint x="680" y="1274.9999999999998" as="sourcePoint" />
          </mxGeometry>
        </mxCell>
        <mxCell id="0skMqqrGYNTBtOEti6-V-84" value="" style="rounded=0;whiteSpace=wrap;html=1;" vertex="1" parent="1">
          <mxGeometry x="670" y="1244" width="10" height="196" as="geometry" />
        </mxCell>
        <mxCell id="0skMqqrGYNTBtOEti6-V-87" style="edgeStyle=orthogonalEdgeStyle;rounded=0;orthogonalLoop=1;jettySize=auto;html=1;entryX=0;entryY=0.452;entryDx=0;entryDy=0;entryPerimeter=0;" edge="1" parent="1">
          <mxGeometry relative="1" as="geometry">
            <mxPoint x="421" y="1266.9999999999998" as="sourcePoint" />
            <mxPoint x="670" y="1266.92" as="targetPoint" />
          </mxGeometry>
        </mxCell>
        <mxCell id="0skMqqrGYNTBtOEti6-V-91" value="" style="endArrow=none;dashed=1;html=1;rounded=0;" edge="1" parent="1" target="0skMqqrGYNTBtOEti6-V-90">
          <mxGeometry width="50" height="50" relative="1" as="geometry">
            <mxPoint x="855" y="1480" as="sourcePoint" />
            <mxPoint x="856.5" y="1130" as="targetPoint" />
          </mxGeometry>
        </mxCell>
        <mxCell id="0skMqqrGYNTBtOEti6-V-90" value="" style="rounded=0;whiteSpace=wrap;html=1;" vertex="1" parent="1">
          <mxGeometry x="850" y="1234" width="10" height="210" as="geometry" />
        </mxCell>
        <mxCell id="0skMqqrGYNTBtOEti6-V-92" value="verTodasAtividades()" style="text;html=1;align=center;verticalAlign=middle;whiteSpace=wrap;rounded=0;" vertex="1" parent="1">
          <mxGeometry x="686" y="1250" width="124" height="30" as="geometry" />
        </mxCell>
        <mxCell id="0skMqqrGYNTBtOEti6-V-94" value="Atividades" style="html=1;verticalAlign=bottom;endArrow=open;dashed=1;endSize=8;curved=0;rounded=0;exitX=-0.276;exitY=0.406;exitDx=0;exitDy=0;exitPerimeter=0;entryX=1.057;entryY=0.364;entryDx=0;entryDy=0;entryPerimeter=0;" edge="1" parent="1">
          <mxGeometry relative="1" as="geometry">
            <mxPoint x="847.24" y="1313.26" as="sourcePoint" />
            <mxPoint x="680.5699999999999" y="1314.44" as="targetPoint" />
          </mxGeometry>
        </mxCell>
        <mxCell id="0skMqqrGYNTBtOEti6-V-95" style="edgeStyle=orthogonalEdgeStyle;rounded=0;orthogonalLoop=1;jettySize=auto;html=1;entryX=-0.256;entryY=0.45;entryDx=0;entryDy=0;entryPerimeter=0;" edge="1" parent="1">
          <mxGeometry relative="1" as="geometry">
            <mxPoint x="421" y="1360.9999999999998" as="sourcePoint" />
            <mxPoint x="667.44" y="1360.5" as="targetPoint" />
          </mxGeometry>
        </mxCell>
        <mxCell id="0skMqqrGYNTBtOEti6-V-96" value="Marcar como concluída" style="text;html=1;align=center;verticalAlign=middle;whiteSpace=wrap;rounded=0;" vertex="1" parent="1">
          <mxGeometry x="470" y="1336" width="170" height="30" as="geometry" />
        </mxCell>
        <mxCell id="0skMqqrGYNTBtOEti6-V-97" style="edgeStyle=orthogonalEdgeStyle;rounded=0;orthogonalLoop=1;jettySize=auto;html=1;entryX=-0.276;entryY=0.546;entryDx=0;entryDy=0;entryPerimeter=0;" edge="1" parent="1">
          <mxGeometry relative="1" as="geometry">
            <mxPoint x="680" y="1382.9999999999998" as="sourcePoint" />
            <mxPoint x="847.24" y="1382.6599999999999" as="targetPoint" />
          </mxGeometry>
        </mxCell>
        <mxCell id="0skMqqrGYNTBtOEti6-V-98" value="checkActivityStatus&lt;div&gt;(Estudante,Professor)&lt;/div&gt;" style="text;html=1;align=center;verticalAlign=middle;whiteSpace=wrap;rounded=0;" vertex="1" parent="1">
          <mxGeometry x="668" y="1349" width="170" height="30" as="geometry" />
        </mxCell>
        <mxCell id="0skMqqrGYNTBtOEti6-V-99" value="&quot;Atividade concluída com sucesso&quot;" style="html=1;verticalAlign=bottom;endArrow=open;dashed=1;endSize=8;curved=0;rounded=0;exitX=0;exitY=0.75;exitDx=0;exitDy=0;entryX=1.199;entryY=0.801;entryDx=0;entryDy=0;entryPerimeter=0;" edge="1" parent="1">
          <mxGeometry relative="1" as="geometry">
            <mxPoint x="670" y="1411" as="sourcePoint" />
            <mxPoint x="422.99" y="1410.996" as="targetPoint" />
          </mxGeometry>
        </mxCell>
        <mxCell id="0skMqqrGYNTBtOEti6-V-100" value="Professor" style="shape=umlActor;verticalLabelPosition=bottom;verticalAlign=top;html=1;outlineConnect=0;" vertex="1" parent="1">
          <mxGeometry x="48" y="1482" width="30" height="60" as="geometry" />
        </mxCell>
        <mxCell id="0skMqqrGYNTBtOEti6-V-101" value="Estudante" style="shape=umlActor;verticalLabelPosition=bottom;verticalAlign=top;html=1;outlineConnect=0;" vertex="1" parent="1">
          <mxGeometry x="137" y="1487" width="30" height="60" as="geometry" />
        </mxCell>
        <mxCell id="0skMqqrGYNTBtOEti6-V-102" value="Cadastro de Usuario" style="html=1;whiteSpace=wrap;" vertex="1" parent="1">
          <mxGeometry x="220" y="1483" width="110" height="50" as="geometry" />
        </mxCell>
        <mxCell id="0skMqqrGYNTBtOEti6-V-103" value="" style="shape=umlBoundary;whiteSpace=wrap;html=1;" vertex="1" parent="1">
          <mxGeometry x="824" y="1480" width="50" height="40" as="geometry" />
        </mxCell>
        <mxCell id="0skMqqrGYNTBtOEti6-V-104" value="Banco de dados" style="text;html=1;align=center;verticalAlign=middle;whiteSpace=wrap;rounded=0;" vertex="1" parent="1">
          <mxGeometry x="825" y="1532" width="60" height="30" as="geometry" />
        </mxCell>
        <mxCell id="0skMqqrGYNTBtOEti6-V-105" value="Login" style="html=1;whiteSpace=wrap;" vertex="1" parent="1">
          <mxGeometry x="360" y="1482" width="110" height="50" as="geometry" />
        </mxCell>
        <mxCell id="0skMqqrGYNTBtOEti6-V-106" value="Turma" style="html=1;whiteSpace=wrap;" vertex="1" parent="1">
          <mxGeometry x="494" y="1482" width="110" height="50" as="geometry" />
        </mxCell>
        <mxCell id="0skMqqrGYNTBtOEti6-V-107" value="Atividades" style="html=1;whiteSpace=wrap;" vertex="1" parent="1">
          <mxGeometry x="620" y="1482" width="110" height="50" as="geometry" />
        </mxCell>
        <mxCell id="En2CuCzcz_Kj0ne_nJwx-1" value="Professor" style="shape=umlActor;verticalLabelPosition=bottom;verticalAlign=top;html=1;outlineConnect=0;" parent="1" vertex="1">
          <mxGeometry x="48" y="27" width="30" height="60" as="geometry" />
        </mxCell>
      </root>
    </mxGraphModel>
  </diagram>
</mxfile>
